<svg width="56" height="56" viewBox="0 0 56 56" fill="none" xmlns="http://www.w3.org/2000/svg">
<rect width="56" height="56" rx="28" fill="#236ADB"/>
<path d="M29.2928 34.5858L23.7068 28.9998C23.5194 28.8123 23.4141 28.558 23.4141 28.2928C23.4141 28.0277 23.5194 27.7733 23.7068 27.5858L29.2928 21.9998C29.4327 21.86 29.6109 21.7648 29.8048 21.7262C29.9988 21.6877 30.1998 21.7075 30.3825 21.7831C30.5652 21.8588 30.7214 21.987 30.8313 22.1514C30.9411 22.3158 30.9998 22.5091 30.9998 22.7068V33.8788C30.9998 34.0766 30.9411 34.2699 30.8313 34.4343C30.7214 34.5987 30.5652 34.7268 30.3825 34.8025C30.1998 34.8782 29.9988 34.898 29.8048 34.8594C29.6109 34.8208 29.4327 34.7256 29.2928 34.5858Z" fill="#F8FFF9"/>
</svg>
