<svg width="27" height="27" viewBox="0 0 27 27" fill="none" xmlns="http://www.w3.org/2000/svg">
<rect x="0.945312" y="0.671875" width="25" height="25" rx="4.5" stroke="white"/>
<g clip-path="url(#clip0_496_16003)">
<path d="M16.1958 19.1717C12.1213 19.2867 4.90734 12.0642 8.37734 8.14068C8.38984 8.12868 8.92284 7.66368 8.92284 7.66368C9.2528 7.3447 9.69487 7.1681 10.1538 7.17194C10.6127 7.17577 11.0518 7.35973 11.3763 7.68418L12.4528 8.84368C12.7696 9.17489 12.9448 9.61657 12.9412 10.0749C12.9375 10.5332 12.7554 10.972 12.4333 11.2982L12.2388 11.4952C12.817 12.7746 13.8395 13.8009 15.1168 14.3837L15.3218 14.1837C15.655 13.866 16.0977 13.6888 16.5581 13.6888C17.0185 13.6888 17.4612 13.866 17.7943 14.1837L18.9133 15.2217C19.2453 15.545 19.4359 15.9865 19.4435 16.4498C19.4511 16.9132 19.275 17.3607 18.9538 17.6947C18.9538 17.6947 18.4888 18.2282 18.4768 18.2407C18.177 18.5389 17.821 18.7747 17.4295 18.9345C17.038 19.0943 16.6187 19.1749 16.1958 19.1717ZM9.42084 9.22168C6.99084 12.2302 14.7673 19.5582 17.3983 17.1967C17.3983 17.1967 17.8603 16.6672 17.8728 16.6547C17.8971 16.6321 17.9165 16.6048 17.9297 16.5744C17.9429 16.5441 17.9497 16.5113 17.9497 16.4782C17.9497 16.4451 17.9429 16.4123 17.9297 16.3819C17.9165 16.3515 17.8971 16.3242 17.8728 16.3017L16.7538 15.2647C16.6038 15.1397 16.5198 15.1382 16.3798 15.2447L15.8123 15.8032C15.7099 15.904 15.5806 15.9732 15.44 16.0026C15.2993 16.0321 15.1531 16.0204 15.0188 15.9692C14.0212 15.5981 13.115 15.0169 12.3617 14.2649C11.6084 13.5129 11.0256 12.6077 10.6528 11.6107C10.5984 11.4753 10.5847 11.327 10.6133 11.1839C10.6419 11.0409 10.7116 10.9092 10.8138 10.8052L11.3683 10.2417C11.3936 10.2194 11.4139 10.1921 11.428 10.1615C11.442 10.1308 11.4495 10.0976 11.45 10.0639C11.4504 10.0302 11.4437 9.99684 11.4305 9.96588C11.4172 9.93492 11.3975 9.90709 11.3728 9.88418L10.2958 8.72468C10.2475 8.68615 10.1867 8.66687 10.125 8.67056C10.0633 8.67426 10.0052 8.70066 9.96184 8.74468C9.95034 8.75718 9.42084 9.22168 9.42084 9.22168ZM19.2708 12.6382C19.4831 11.9042 19.4945 11.1268 19.3041 10.3869C19.1136 9.64698 18.7282 8.97171 18.188 8.43144C17.6478 7.89117 16.9725 7.50568 16.2326 7.31515C15.4928 7.12462 14.7153 7.13603 13.9813 7.34818C13.887 7.37635 13.799 7.42283 13.7226 7.48498C13.6462 7.54712 13.5828 7.62371 13.5359 7.71037C13.4891 7.79703 13.4598 7.89206 13.4497 7.99005C13.4396 8.08803 13.4489 8.18704 13.4771 8.28143C13.5053 8.37582 13.5517 8.46373 13.6139 8.54015C13.676 8.61658 13.7526 8.68001 13.8393 8.72684C13.9259 8.77366 14.021 8.80296 14.119 8.81305C14.2169 8.82315 14.316 8.81385 14.4103 8.78568C14.885 8.64999 15.3873 8.64372 15.8651 8.76753C16.343 8.89133 16.7791 9.14071 17.1281 9.4898C17.4772 9.83889 17.7265 10.275 17.8502 10.7529C17.9739 11.2308 17.9676 11.7331 17.8318 12.2077C17.8037 12.3021 17.7945 12.4011 17.8046 12.4991C17.8148 12.5971 17.8442 12.6922 17.891 12.7788C17.9379 12.8654 18.0015 12.942 18.0779 13.0041C18.1544 13.0662 18.2424 13.1126 18.3368 13.1407C18.4065 13.1612 18.4787 13.1717 18.5513 13.1717C18.7128 13.1715 18.8698 13.1192 18.9992 13.0227C19.1285 12.9261 19.2233 12.7904 19.2693 12.6357L19.2708 12.6382ZM16.4778 12.7047C16.5475 12.635 16.6028 12.5523 16.6405 12.4613C16.6783 12.3703 16.6977 12.2727 16.6977 12.1742C16.6977 12.0756 16.6783 11.9781 16.6405 11.8871C16.6028 11.796 16.5475 11.7133 16.4778 11.6437L15.9458 11.1112V10.4217C15.9458 10.2228 15.8668 10.032 15.7262 9.89135C15.5855 9.7507 15.3948 9.67168 15.1958 9.67168C14.9969 9.67168 14.8062 9.7507 14.6655 9.89135C14.5249 10.032 14.4458 10.2228 14.4458 10.4217V11.4217C14.4458 11.5202 14.4652 11.6177 14.5028 11.7088C14.5405 11.7998 14.5957 11.8825 14.6653 11.9522L15.4153 12.7022C15.485 12.7719 15.5677 12.8272 15.6587 12.8649C15.7497 12.9026 15.8473 12.922 15.9458 12.922C16.0444 12.922 16.1419 12.9026 16.233 12.8649C16.324 12.8272 16.4067 12.7719 16.4763 12.7022L16.4778 12.7047Z" fill="white"/>
</g>
<defs>
<clipPath id="clip0_496_16003">
<rect width="12" height="12" fill="white" transform="translate(7.44531 7.17188)"/>
</clipPath>
</defs>
</svg>
