<svg width="11" height="7" viewBox="0 0 11 7" fill="none" xmlns="http://www.w3.org/2000/svg">
<path d="M0.691718 0.784886C0.782002 0.784764 0.871416 0.802523 0.954802 0.837135C1.03819 0.871748 1.11389 0.92253 1.17755 0.986552L4.69434 4.50288C4.80075 4.60931 4.92708 4.69374 5.06612 4.75134C5.20515 4.80895 5.35418 4.83859 5.50468 4.83859C5.65517 4.83859 5.8042 4.80895 5.94324 4.75134C6.08228 4.69374 6.20861 4.60931 6.31501 4.50288L9.8263 0.991135C9.88972 0.925472 9.96558 0.873097 10.0495 0.837066C10.1333 0.801035 10.2236 0.782069 10.3148 0.781276C10.4061 0.780483 10.4967 0.797877 10.5811 0.832446C10.6656 0.867014 10.7424 0.918063 10.8069 0.982614C10.8715 1.04716 10.9225 1.12393 10.9571 1.20842C10.9917 1.29291 11.0091 1.38344 11.0083 1.47472C11.0075 1.56601 10.9885 1.65622 10.9525 1.7401C10.9165 1.82398 10.8641 1.89984 10.7984 1.96326L7.28713 5.475C6.81409 5.94717 6.17304 6.21235 5.50468 6.21235C4.83632 6.21235 4.19526 5.94717 3.72222 5.475L0.205427 1.95868C0.109215 1.86253 0.0436869 1.74 0.0171337 1.60659C-0.0094194 1.47319 0.00419591 1.33491 0.0562568 1.20925C0.108318 1.08359 0.196484 0.97619 0.309601 0.900651C0.422717 0.825111 0.555698 0.784824 0.691718 0.784886V0.784886Z" fill="#003487"/>
</svg>
