<svg width="19" height="19" viewBox="0 0 19 19" fill="none" xmlns="http://www.w3.org/2000/svg">
<path d="M17.618 1.38273C17.0448 0.83497 16.2824 0.529297 15.4895 0.529297C14.6966 0.529297 13.9343 0.83497 13.361 1.38273L1.70826 13.0355C1.32419 13.4174 1.01966 13.8718 0.81227 14.3721C0.604879 14.8725 0.498747 15.4091 0.500011 15.9507V17.3757C0.500011 17.6741 0.618538 17.9602 0.829516 18.1712C1.04049 18.3822 1.32664 18.5007 1.62501 18.5007H3.05001C3.59193 18.5022 4.12875 18.3962 4.62941 18.1888C5.13007 17.9814 5.58462 17.6767 5.96676 17.2925L17.618 5.63973C18.1817 5.07478 18.4983 4.3093 18.4983 3.51123C18.4983 2.71316 18.1817 1.94768 17.618 1.38273V1.38273ZM4.37451 15.7017C4.0223 16.0517 3.5465 16.2489 3.05001 16.2507H2.75001V15.9507C2.75155 15.4537 2.94879 14.9774 3.29901 14.6247L11.975 5.95098L13.0498 7.02573L4.37451 15.7017ZM16.025 4.04898L14.6405 5.43573L13.565 4.36023L14.9525 2.97573C15.0972 2.83742 15.2897 2.76023 15.4899 2.76023C15.6901 2.76023 15.8825 2.83742 16.0273 2.97573C16.1687 3.11865 16.2479 3.31174 16.2474 3.51282C16.247 3.7139 16.1671 3.90665 16.025 4.04898V4.04898Z" fill="#374957"/>
</svg>
