<svg width="25" height="25" viewBox="0 0 25 25" fill="none" xmlns="http://www.w3.org/2000/svg">
<g clip-path="url(#clip0_618_18573)">
<path d="M20.618 4.38273C20.0448 3.83497 19.2824 3.5293 18.4895 3.5293C17.6966 3.5293 16.9343 3.83497 16.361 4.38273L4.70826 16.0355C4.32419 16.4174 4.01966 16.8718 3.81227 17.3721C3.60488 17.8725 3.49875 18.4091 3.50001 18.9507V20.3757C3.50001 20.6741 3.61854 20.9602 3.82952 21.1712C4.04049 21.3822 4.32664 21.5007 4.62501 21.5007H6.05001C6.59193 21.5022 7.12875 21.3962 7.62941 21.1888C8.13007 20.9814 8.58462 20.6767 8.96676 20.2925L20.618 8.63973C21.1817 8.07478 21.4983 7.3093 21.4983 6.51123C21.4983 5.71316 21.1817 4.94768 20.618 4.38273V4.38273ZM7.37451 18.7017C7.0223 19.0517 6.5465 19.2489 6.05001 19.2507H5.75001V18.9507C5.75155 18.4537 5.94879 17.9774 6.29901 17.6247L14.975 8.95098L16.0498 10.0257L7.37451 18.7017ZM19.025 7.04898L17.6405 8.43573L16.565 7.36023L17.9525 5.97573C18.0972 5.83742 18.2897 5.76023 18.4899 5.76023C18.6901 5.76023 18.8825 5.83742 19.0273 5.97573C19.1687 6.11865 19.2479 6.31174 19.2474 6.51282C19.247 6.7139 19.1671 6.90665 19.025 7.04898V7.04898Z" fill="#374957"/>
</g>
<defs>
<clipPath id="clip0_618_18573">
<rect width="18" height="18" fill="white" transform="translate(3.5 3.5)"/>
</clipPath>
</defs>
</svg>
