<svg width="32" height="33" viewBox="0 0 32 33" fill="none" xmlns="http://www.w3.org/2000/svg">
<g clip-path="url(#clip0_499_18883)">
<path d="M22.668 17.3776C22.668 17.9081 22.4573 18.4168 22.0822 18.7918C21.7071 19.1669 21.1984 19.3776 20.668 19.3776H11.3346C10.8042 19.3776 10.2955 19.1669 9.92042 18.7918C9.54535 18.4168 9.33464 17.9081 9.33464 17.3776C9.33464 16.8472 9.54535 16.3385 9.92042 15.9634C10.2955 15.5883 10.8042 15.3776 11.3346 15.3776H20.668C21.1984 15.3776 21.7071 15.5883 22.0822 15.9634C22.4573 16.3385 22.668 16.8472 22.668 17.3776V17.3776ZM16.668 22.0443H11.3346C10.8042 22.0443 10.2955 22.255 9.92042 22.6301C9.54535 23.0052 9.33464 23.5139 9.33464 24.0443C9.33464 24.5747 9.54535 25.0834 9.92042 25.4585C10.2955 25.8336 10.8042 26.0443 11.3346 26.0443H16.668C17.1984 26.0443 17.7071 25.8336 18.0822 25.4585C18.4573 25.0834 18.668 24.5747 18.668 24.0443C18.668 23.5139 18.4573 23.0052 18.0822 22.6301C17.7071 22.255 17.1984 22.0443 16.668 22.0443V22.0443ZM29.3346 11.587V25.3776C29.3325 27.3219 28.5592 29.1859 27.1844 30.5607C25.8096 31.9356 23.9456 32.7089 22.0013 32.711H10.0013C8.05703 32.7089 6.193 31.9356 4.81819 30.5607C3.44338 29.1859 2.67009 27.3219 2.66797 25.3776V8.0443C2.67009 6.10003 3.44338 4.236 4.81819 2.86119C6.193 1.48638 8.05703 0.713085 10.0013 0.710967H18.4586C19.4221 0.70822 20.3765 0.89666 21.2665 1.26537C22.1566 1.63409 22.9647 2.17574 23.644 2.85897L27.1866 6.40163C27.8697 7.08099 28.4113 7.88908 28.78 8.77915C29.1487 9.66921 29.3372 10.6236 29.3346 11.587V11.587ZM25.3346 25.3776V12.711H20.0013C19.2941 12.711 18.6158 12.43 18.1157 11.9299C17.6156 11.4298 17.3346 10.7515 17.3346 10.0443V4.71097H10.0013C9.11725 4.71097 8.2694 5.06216 7.64428 5.68728C7.01916 6.3124 6.66797 7.16025 6.66797 8.0443V25.3776C6.66797 26.2617 7.01916 27.1095 7.64428 27.7347C8.2694 28.3598 9.11725 28.711 10.0013 28.711H22.0013C22.8854 28.711 23.7332 28.3598 24.3583 27.7347C24.9834 27.1095 25.3346 26.2617 25.3346 25.3776Z" fill="#236ADB"/>
</g>
<defs>
<clipPath id="clip0_499_18883">
<rect width="32" height="32" fill="white" transform="translate(0 0.710938)"/>
</clipPath>
</defs>
</svg>
