<svg width="44" height="36" viewBox="0 0 44 36" fill="none" xmlns="http://www.w3.org/2000/svg">
<rect x="0.675781" y="0.0585938" width="43.1127" height="35.1127" rx="10" fill="white"/>
<path d="M27.7647 19.9409L27.7647 15.2922C27.745 14.4474 27.4006 13.6428 26.8031 13.0453C26.2056 12.4478 25.401 12.1034 24.5562 12.0837L19.9075 12.0837C19.5428 12.0838 19.193 12.2287 18.9352 12.4867C18.6774 12.7446 18.5326 13.0944 18.5327 13.4591C18.5328 13.8238 18.6777 14.1735 18.9357 14.4314C19.1936 14.6892 19.5434 14.834 19.9081 14.8339L23.0699 14.8339L16.7223 21.1815C16.4644 21.4394 16.3196 21.7891 16.3196 22.1538C16.3196 22.5185 16.4644 22.8682 16.7223 23.1261C16.9802 23.3839 17.3299 23.5288 17.6946 23.5288C18.0593 23.5288 18.409 23.3839 18.6669 23.1261L25.0145 16.7784L25.0145 19.9403C25.0145 20.1209 25.05 20.2997 25.119 20.4665C25.1881 20.6334 25.2894 20.785 25.417 20.9127C25.5447 21.0404 25.6963 21.1418 25.8631 21.2109C26.0299 21.2801 26.2087 21.3157 26.3893 21.3157C26.5699 21.3158 26.7487 21.2802 26.9155 21.2112C27.0824 21.1421 27.234 21.0408 27.3617 20.9132C27.4895 20.7855 27.5908 20.634 27.6599 20.4671C27.7291 20.3003 27.7647 20.1215 27.7647 19.9409Z" fill="#236ADB"/>
</svg>
