<svg width="25" height="24" viewBox="0 0 25 24" fill="none" xmlns="http://www.w3.org/2000/svg">
<path d="M19.4987 17.2475C19.4987 18.3397 18.5259 19.3231 17.5683 19.715C15.3594 20.634 12.8379 19.252 11.071 17.9675C9.32695 16.6955 7.78371 15.1595 6.51168 13.415C5.23687 11.6454 3.88211 9.17156 4.76906 6.9575C5.15158 5.98673 6.08884 5 7.1952 5C8.80747 5 11.2734 8.66042 9.87672 10.055C9.50727 10.4385 9.07754 10.6985 9.26831 11.27C9.70813 12.0751 10.4189 12.7667 11.056 13.415C11.7115 14.0574 12.399 14.7739 13.2192 15.2075C13.7766 15.4301 14.0563 14.9669 14.421 14.6075C15.6762 13.3542 19.4987 15.4846 19.4987 17.2475Z" stroke="white" stroke-miterlimit="10"/>
<path d="M13.5 8C13.5 6.067 15.067 4.5 17 4.5V4.5C18.933 4.5 20.5 6.067 20.5 8V8C20.5 9.933 18.933 11.5 17 11.5H13.8333C13.6492 11.5 13.5 11.3508 13.5 11.1667V8Z" stroke="white"/>
<path d="M17 6.5V9.5M15.5 8L18.5 8" stroke="white" stroke-linecap="round"/>
</svg>
