<svg width="72" height="72" viewBox="0 0 72 72" fill="none" xmlns="http://www.w3.org/2000/svg">
<rect width="72" height="72" rx="11" fill="#F0F6FF"/>
<g clip-path="url(#clip0_584_13659)">
<path d="M44.7493 19.0859C43.0399 19.1025 41.358 19.5192 39.8385 20.3026C38.3191 21.0861 37.0042 22.2146 35.9993 23.5976C34.9945 22.2146 33.6796 21.0861 32.1601 20.3026C30.6407 19.5192 28.9588 19.1025 27.2493 19.0859C24.1523 19.2096 21.2302 20.5546 19.122 22.8267C17.0139 25.0989 15.8911 28.1133 15.9993 31.2109C15.9993 38.7976 23.7893 46.9193 30.3327 52.3976C31.9216 53.7336 33.9309 54.4661 36.0068 54.4661C38.0828 54.4661 40.0921 53.7336 41.681 52.3976C48.2177 46.9193 56.0143 38.7976 56.0143 31.2109C56.1225 28.1108 54.9977 25.0942 52.8863 22.8216C50.7749 20.549 47.849 19.2058 44.7493 19.0859ZM38.461 48.5659C37.7717 49.1463 36.8996 49.4646 35.9985 49.4646C35.0974 49.4646 34.2253 49.1463 33.536 48.5659C25.5693 41.8859 20.9993 35.5609 20.9993 31.2109C20.8931 29.4396 21.4898 27.6979 22.66 26.3639C23.8301 25.0299 25.4793 24.2114 27.2493 24.0859C29.0194 24.2114 30.6685 25.0299 31.8387 26.3639C33.0089 27.6979 33.6056 29.4396 33.4993 31.2109C33.4993 31.874 33.7627 32.5099 34.2316 32.9787C34.7004 33.4475 35.3363 33.7109 35.9993 33.7109C36.6624 33.7109 37.2983 33.4475 37.7671 32.9787C38.236 32.5099 38.4993 31.874 38.4993 31.2109C38.3931 29.4396 38.9898 27.6979 40.16 26.3639C41.3301 25.0299 42.9793 24.2114 44.7493 24.0859C46.5194 24.2114 48.1685 25.0299 49.3387 26.3639C50.5089 27.6979 51.1056 29.4396 50.9993 31.2109C50.9993 35.5609 46.4293 41.8859 38.461 48.5659Z" fill="#236ADB"/>
</g>
<defs>
<clipPath id="clip0_584_13659">
<rect width="40" height="40" fill="white" transform="translate(16 16)"/>
</clipPath>
</defs>
</svg>
