<svg width="14" height="14" viewBox="0 0 14 14" fill="none" xmlns="http://www.w3.org/2000/svg">
<path d="M8.23718 6.99998L13.7436 1.49413C14.0854 1.15232 14.0854 0.598141 13.7436 0.256358C13.4018 -0.0854526 12.8476 -0.0854526 12.5059 0.256358L6.99998 5.76278L1.49413 0.256358C1.15232 -0.0854526 0.598141 -0.0854526 0.256358 0.256358C-0.0854252 0.598168 -0.0854526 1.15235 0.256358 1.49413L5.76278 6.99998L0.256358 12.5059C-0.0854526 12.8477 -0.0854526 13.4018 0.256358 13.7436C0.598168 14.0854 1.15235 14.0854 1.49413 13.7436L6.99998 8.23718L12.5058 13.7436C12.8476 14.0854 13.4018 14.0854 13.7436 13.7436C14.0854 13.4018 14.0854 12.8476 13.7436 12.5059L8.23718 6.99998Z" fill="#003487"/>
</svg>
