<svg width="37" height="37" viewBox="0 0 37 37" fill="none" xmlns="http://www.w3.org/2000/svg">
<rect x="0.457031" y="0.390625" width="36" height="36" rx="18" fill="#F0F6FF"/>
<g clip-path="url(#clip0_496_16021)">
<path d="M23.957 12.8906H23.967M13.457 8.39062H23.457C26.2185 8.39062 28.457 10.6292 28.457 13.3906V23.3906C28.457 26.152 26.2185 28.3906 23.457 28.3906H13.457C10.6956 28.3906 8.45703 26.152 8.45703 23.3906V13.3906C8.45703 10.6292 10.6956 8.39062 13.457 8.39062ZM22.457 17.7606C22.5804 18.5929 22.4383 19.4428 22.0508 20.1896C21.6633 20.9364 21.0502 21.542 20.2987 21.9203C19.5471 22.2986 18.6955 22.4302 17.8648 22.2966C17.0342 22.1629 16.2668 21.7707 15.6719 21.1758C15.0769 20.5809 14.6848 19.8135 14.5511 18.9828C14.4174 18.1522 14.5491 17.3005 14.9274 16.549C15.3056 15.7975 15.9112 15.1844 16.658 14.7969C17.4048 14.4094 18.2548 14.2672 19.087 14.3906C19.936 14.5165 20.7219 14.9121 21.3287 15.5189C21.9356 16.1258 22.3311 16.9117 22.457 17.7606Z" stroke="#236ADB" stroke-width="3" stroke-linecap="round" stroke-linejoin="round"/>
</g>
<defs>
<clipPath id="clip0_496_16021">
<rect width="24" height="24" fill="white" transform="translate(6.45703 6.39062)"/>
</clipPath>
</defs>
</svg>
