<svg width="27" height="27" viewBox="0 0 27 27" fill="none" xmlns="http://www.w3.org/2000/svg">
<rect x="0.945312" y="0.671875" width="25" height="25" rx="4.5" stroke="white"/>
<g clip-path="url(#clip0_496_16011)">
<path d="M13.446 14.6705C13.6981 14.6709 13.9469 14.6126 14.1725 14.5L15.0475 14.0625C15.3183 13.9284 15.5461 13.721 15.7049 13.4639C15.8637 13.2068 15.9473 12.9102 15.946 12.608V11.733C15.9469 11.4308 15.8631 11.1344 15.704 10.8775C15.5449 10.6205 15.3169 10.4134 15.046 10.2795L14.171 9.84203C13.9452 9.72981 13.6966 9.6714 13.4445 9.6714C13.1924 9.6714 12.9437 9.72981 12.718 9.84203L11.846 10.2795C11.575 10.4134 11.3471 10.6205 11.188 10.8775C11.0289 11.1344 10.945 11.4308 10.946 11.733V12.608C10.945 12.9102 11.0289 13.2066 11.188 13.4636C11.3471 13.7205 11.575 13.9277 11.846 14.0615L12.721 14.499C12.9461 14.6117 13.1943 14.6704 13.446 14.6705ZM12.446 12.609V11.759L13.1095 12.0905C13.2139 12.143 13.3291 12.1703 13.446 12.1703C13.5628 12.1703 13.6781 12.143 13.7825 12.0905L14.446 11.7595V12.6095C14.4461 12.6328 14.4396 12.6557 14.4274 12.6755C14.4151 12.6953 14.3974 12.7113 14.3765 12.7215L13.5015 13.159C13.4843 13.1677 13.4653 13.1721 13.446 13.1721C13.4267 13.1721 13.4077 13.1677 13.3905 13.159L12.5155 12.7215C12.4943 12.7112 12.4765 12.695 12.4642 12.6749C12.4519 12.6548 12.4456 12.6316 12.446 12.608V12.609ZM16.696 17.6705H14.826C14.9884 17.5721 15.1393 17.4558 15.276 17.324L16.982 15.7395C17.9184 14.7953 18.4438 13.5193 18.4438 12.1895C18.4438 10.8597 17.9184 9.58376 16.982 8.63953C16.5185 8.17318 15.9675 7.80308 15.3604 7.55053C14.7534 7.29798 14.1024 7.16797 13.445 7.16797C12.7875 7.16797 12.1366 7.29798 11.5295 7.55053C10.9225 7.80308 10.3714 8.17318 9.90799 8.63953C8.96952 9.58831 8.44503 10.8702 8.44924 12.2047C8.45346 13.5392 8.98604 14.8177 9.93049 15.7605L11.5995 17.3105C11.7424 17.4481 11.9006 17.5689 12.071 17.6705H10.196C9.99708 17.6705 9.80631 17.7495 9.66566 17.8902C9.52501 18.0309 9.44599 18.2216 9.44599 18.4205C9.44599 18.6194 9.52501 18.8102 9.66566 18.9509C9.80631 19.0915 9.99708 19.1705 10.196 19.1705H16.696C16.8949 19.1705 17.0857 19.0915 17.2263 18.9509C17.367 18.8102 17.446 18.6194 17.446 18.4205C17.446 18.2216 17.367 18.0309 17.2263 17.8902C17.0857 17.7495 16.8949 17.6705 16.696 17.6705ZM10.9725 14.6815C10.3157 14.0191 9.94726 13.1241 9.94726 12.1913C9.94726 11.2585 10.3157 10.3634 10.9725 9.70103C11.2964 9.37452 11.6817 9.11537 12.1062 8.93851C12.5307 8.76166 12.9861 8.67061 13.446 8.67061C13.9059 8.67061 14.3612 8.76166 14.7858 8.93851C15.2103 9.11537 15.5956 9.37452 15.9195 9.70103C16.5741 10.359 16.9433 11.2482 16.9473 12.1764C16.9514 13.1045 16.5898 13.9969 15.941 14.6605L14.241 16.239C14.0243 16.4464 13.7351 16.5609 13.4352 16.5581C13.1353 16.5553 12.8483 16.4354 12.6355 16.224L10.9725 14.6815Z" fill="white"/>
</g>
<defs>
<clipPath id="clip0_496_16011">
<rect width="12" height="12" fill="white" transform="translate(7.44531 7.17188)"/>
</clipPath>
</defs>
</svg>
