<svg width="29" height="28" viewBox="0 0 29 28" fill="none" xmlns="http://www.w3.org/2000/svg">
<rect x="0.5" width="28" height="28" rx="14" fill="black" fill-opacity="0.04"/>
<g clip-path="url(#clip0_499_18375)">
<mask id="mask0_499_18375" style="mask-type:luminance" maskUnits="userSpaceOnUse" x="6" y="6" width="17" height="16">
<path d="M6.5 6H22.5V22H6.5V6Z" fill="white"/>
</mask>
<g mask="url(#mask0_499_18375)">
<path d="M12.797 6C12.5956 6.00079 12.4028 6.08149 12.2608 6.22436C12.1189 6.36724 12.0395 6.56061 12.04 6.762C12.04 7.182 12.38 7.524 12.797 7.524H15.824C16.0254 7.52321 16.2182 7.44251 16.3602 7.29964C16.5021 7.15676 16.5815 6.96339 16.581 6.762C16.5815 6.56061 16.5021 6.36724 16.3602 6.22436C16.2182 6.08149 16.0254 6.00079 15.824 6H12.797ZM19.604 7.68C19.5045 7.68829 19.4077 7.71626 19.3191 7.76226C19.2306 7.80827 19.152 7.8714 19.088 7.948C18.818 8.268 18.858 8.75 19.176 9.022L20.254 9.942C20.3298 10.0065 20.4176 10.0554 20.5124 10.0859C20.6072 10.1163 20.7071 10.1277 20.8063 10.1193C20.9054 10.1109 21.002 10.083 21.0904 10.0371C21.1787 9.99125 21.2571 9.92833 21.321 9.852C21.4504 9.69724 21.5136 9.49775 21.4969 9.29674C21.4802 9.09572 21.3851 8.90935 21.232 8.778L20.155 7.858C20.0795 7.79339 19.9919 7.74439 19.8973 7.71384C19.8027 7.68329 19.703 7.67179 19.604 7.68ZM14.311 8.286C10.556 8.286 7.5 11.362 7.5 15.143C7.5 18.923 10.556 22 14.31 22C18.066 22 21.121 18.923 21.121 15.143C21.121 11.363 18.066 8.286 14.311 8.286ZM14.311 10.571C14.5122 10.5721 14.7048 10.6529 14.8465 10.7957C14.9882 10.9386 15.0675 11.1318 15.067 11.333V15.143C15.0675 15.3442 14.9882 15.5374 14.8465 15.6803C14.7048 15.8231 14.5122 15.9039 14.311 15.905C14.1096 15.9042 13.9168 15.8235 13.7748 15.6806C13.6329 15.5378 13.5535 15.3444 13.554 15.143V11.333C13.5535 11.1316 13.6329 10.9382 13.7748 10.7954C13.9168 10.6525 14.1096 10.5718 14.311 10.571Z" fill="#46CDD6"/>
</g>
</g>
<defs>
<clipPath id="clip0_499_18375">
<rect width="16" height="16" fill="white" transform="translate(6.5 6)"/>
</clipPath>
</defs>
</svg>
