<svg width="27" height="27" viewBox="0 0 27 27" fill="none" xmlns="http://www.w3.org/2000/svg">
<rect x="0.945312" y="0.671875" width="25" height="25" rx="4.5" stroke="white"/>
<g clip-path="url(#clip0_496_16007)">
<path d="M16.6953 7.67188H10.1953C9.46621 7.67267 8.7672 7.96266 8.25165 8.47821C7.73609 8.99376 7.44611 9.69277 7.44531 10.4219V15.9219C7.44611 16.651 7.73609 17.35 8.25165 17.8655C8.7672 18.3811 9.46621 18.6711 10.1953 18.6719H16.6953C17.4244 18.6711 18.1234 18.3811 18.639 17.8655C19.1545 17.35 19.4445 16.651 19.4453 15.9219V10.4219C19.4445 9.69277 19.1545 8.99376 18.639 8.47821C18.1234 7.96266 17.4244 7.67267 16.6953 7.67188ZM16.6953 9.17188C16.9985 9.17288 17.2909 9.28515 17.5168 9.48738L14.2668 12.7374C14.0461 12.9482 13.7526 13.0659 13.4473 13.0659C13.1421 13.0659 12.8486 12.9482 12.6278 12.7374L9.37781 9.48738C9.60274 9.28606 9.89346 9.17386 10.1953 9.17188H16.6953ZM16.6953 17.1719H10.1953C9.86379 17.1719 9.54585 17.0402 9.31143 16.8058C9.07701 16.5713 8.94531 16.2534 8.94531 15.9219V11.1804L11.5648 13.7999C11.8117 14.0469 12.1048 14.2428 12.4274 14.3765C12.7501 14.5101 13.0958 14.5789 13.4451 14.5789C13.7943 14.5789 14.1401 14.5101 14.4627 14.3765C14.7853 14.2428 15.0784 14.0469 15.3253 13.7999L17.9453 11.1804V15.9219C17.9453 16.2534 17.8136 16.5713 17.5792 16.8058C17.3448 17.0402 17.0268 17.1719 16.6953 17.1719Z" fill="white"/>
</g>
<defs>
<clipPath id="clip0_496_16007">
<rect width="12" height="12" fill="white" transform="translate(7.44531 7.17188)"/>
</clipPath>
</defs>
</svg>
