<svg width="24" height="24" viewBox="0 0 24 24" fill="none" xmlns="http://www.w3.org/2000/svg">
<g clip-path="url(#clip0_616_18413)">
<path d="M20.67 19.0839L17.1862 15.5986C19.7929 12.115 19.0822 7.17775 15.5986 4.57096C12.115 1.96417 7.17775 2.67496 4.57096 6.15854C1.96417 9.64212 2.67496 14.5794 6.15854 17.1862C8.95684 19.2802 12.8002 19.2802 15.5986 17.1862L19.0839 20.6715C19.5219 21.1095 20.232 21.1095 20.67 20.6715C21.108 20.2335 21.108 19.5234 20.67 19.0854L20.67 19.0839ZM10.9076 16.5135C7.81156 16.5135 5.30176 14.0036 5.30176 10.9076C5.30176 7.81157 7.81156 5.30176 10.9076 5.30176C14.0036 5.30176 16.5135 7.81157 16.5135 10.9076C16.5102 14.0022 14.0023 16.5102 10.9076 16.5135Z" fill="#374957"/>
</g>
<defs>
<clipPath id="clip0_616_18413">
<rect width="18" height="18" fill="white" transform="translate(3 3)"/>
</clipPath>
</defs>
</svg>
