<svg width="17" height="17" viewBox="0 0 17 17" fill="none" xmlns="http://www.w3.org/2000/svg">
<path d="M16.2028 14.7968L13.106 11.6987C15.4232 8.60222 14.7913 4.21356 11.6948 1.89641C8.59832 -0.420736 4.20965 0.211075 1.89251 3.30759C-0.424642 6.40411 0.207168 10.7928 3.30368 13.1099C5.79106 14.9712 9.20742 14.9712 11.6948 13.1099L14.7929 16.208C15.1822 16.5973 15.8135 16.5973 16.2027 16.208C16.5921 15.8187 16.5921 15.1874 16.2027 14.7982L16.2028 14.7968ZM7.52508 12.512C4.77304 12.512 2.5421 10.281 2.5421 7.52898C2.5421 4.77695 4.77304 2.546 7.52508 2.546C10.2771 2.546 12.5081 4.77695 12.5081 7.52898C12.5051 10.2798 10.2759 12.509 7.52508 12.512Z" fill="#003487"/>
</svg>
