<svg width="9" height="14" viewBox="0 0 9 14" fill="none" xmlns="http://www.w3.org/2000/svg">
<path d="M0.5 12.8788V1.70682C0.500042 1.50907 0.558714 1.31577 0.668598 1.15136C0.778482 0.98695 0.934645 0.85881 1.11734 0.78314C1.30004 0.70747 1.50108 0.687667 1.69503 0.726235C1.88898 0.764802 2.06715 0.860009 2.207 0.999818L7.79299 6.58582C7.98046 6.77335 8.08577 7.02765 8.08577 7.29282C8.08577 7.55798 7.98046 7.81229 7.79299 7.99982L2.207 13.5858C2.06715 13.7256 1.88898 13.8208 1.69503 13.8594C1.50108 13.898 1.30004 13.8782 1.11734 13.8025C0.934645 13.7268 0.778482 13.5987 0.668598 13.4343C0.558714 13.2699 0.500042 13.0766 0.5 12.8788Z" fill="#F5F5F5"/>
</svg>
