<svg width="37" height="37" viewBox="0 0 37 37" fill="none" xmlns="http://www.w3.org/2000/svg">
<rect x="0.457031" y="0.390625" width="36" height="36" rx="18" fill="#F0F6FF"/>
<path d="M29.457 9.38896C28.4994 10.0644 27.4391 10.5811 26.317 10.919C25.7148 10.2265 24.9144 9.73565 24.0241 9.51289C23.1338 9.29012 22.1965 9.34616 21.3391 9.67342C20.4817 10.0007 19.7455 10.5834 19.23 11.3427C18.7146 12.102 18.4447 13.0013 18.457 13.919V14.919C16.6997 14.9645 14.9583 14.5748 13.388 13.7844C11.8178 12.994 10.4673 11.8276 9.45703 10.389C9.45703 10.389 5.45703 19.389 14.457 23.389C12.3976 24.7869 9.94419 25.4879 7.45703 25.389C16.457 30.389 27.457 25.389 27.457 13.889C27.4561 13.6104 27.4293 13.3326 27.377 13.059C28.3976 12.0525 29.1179 10.7817 29.457 9.38896Z" fill="#236ADB"/>
</svg>
