<svg width="25" height="25" viewBox="0 0 25 25" fill="none" xmlns="http://www.w3.org/2000/svg">
<g clip-path="url(#clip0_618_17233)">
<path d="M9.32054 8.48805L11.4062 6.40165L11.422 16.6252C11.422 17.2465 11.9256 17.7502 12.5469 17.7502C13.1682 17.7502 13.6719 17.2465 13.6719 16.6252L13.6561 6.41441L15.7298 8.48808C16.1614 8.93497 16.8736 8.94735 17.3205 8.51572C17.7673 8.08409 17.7797 7.37192 17.3481 6.92503C17.339 6.91565 17.3298 6.90644 17.3205 6.8974L14.9116 4.48849C13.5936 3.17051 11.4568 3.17051 10.1388 4.48846L10.1387 4.48849L7.72986 6.89737C7.29823 7.34425 7.31061 8.05642 7.75749 8.48805C8.19345 8.9091 8.88459 8.9091 9.32054 8.48805Z" fill="#374957"/>
<path d="M20.3743 14.375C19.753 14.375 19.2493 14.8787 19.2493 15.5V18.943C19.2489 19.1123 19.1118 19.2494 18.9426 19.2498H6.05663C5.88739 19.2493 5.75029 19.1123 5.7499 18.943V15.5C5.7499 14.8787 5.24624 14.375 4.62495 14.375C4.00366 14.375 3.5 14.8787 3.5 15.5V18.943C3.50165 20.3544 4.64534 21.498 6.05663 21.4997H18.9426C20.3539 21.498 21.4975 20.3543 21.4992 18.943V15.5C21.4992 14.8787 20.9956 14.375 20.3743 14.375Z" fill="#374957"/>
</g>
<defs>
<clipPath id="clip0_618_17233">
<rect width="18" height="18" fill="white" transform="translate(3.5 3.5)"/>
</clipPath>
</defs>
</svg>
