<svg width="24" height="24" viewBox="0 0 24 24" fill="none" xmlns="http://www.w3.org/2000/svg">
<path d="M13.2372 12L18.7436 6.49413C19.0854 6.15232 19.0854 5.59814 18.7436 5.25636C18.4018 4.91455 17.8476 4.91455 17.5059 5.25636L12 10.7628L6.49413 5.25636C6.15232 4.91455 5.59814 4.91455 5.25636 5.25636C4.91457 5.59817 4.91455 6.15235 5.25636 6.49413L10.7628 12L5.25636 17.5059C4.91455 17.8477 4.91455 18.4018 5.25636 18.7436C5.59817 19.0854 6.15235 19.0854 6.49413 18.7436L12 13.2372L17.5058 18.7436C17.8476 19.0854 18.4018 19.0854 18.7436 18.7436C19.0854 18.4018 19.0854 17.8476 18.7436 17.5059L13.2372 12Z" fill="#003487"/>
</svg>
